<?xml version="1.0" encoding="UTF-8" standalone="no"?>
<svg
   xmlns:dc="http://purl.org/dc/elements/1.1/"
   xmlns:cc="http://creativecommons.org/ns#"
   xmlns:rdf="http://www.w3.org/1999/02/22-rdf-syntax-ns#"
   xmlns:svg="http://www.w3.org/2000/svg"
   xmlns="http://www.w3.org/2000/svg"
   xmlns:sodipodi="http://sodipodi.sourceforge.net/DTD/sodipodi-0.dtd"
   xmlns:inkscape="http://www.inkscape.org/namespaces/inkscape"
   viewBox="0 0 100 100"
   version="1.1"
   x="0px"
   y="0px"
   id="svg115"
   sodipodi:docname="noun_javascript_980458.svg"
   width="100"
   height="100"
   inkscape:version="0.92.1 r15371">
  <metadata
     id="metadata121">
    <rdf:RDF>
      <cc:Work
         rdf:about="">
        <dc:format>image/svg+xml</dc:format>
        <dc:type
           rdf:resource="http://purl.org/dc/dcmitype/StillImage" />
        <dc:title>30 -Javascript- (Outline)</dc:title>
      </cc:Work>
    </rdf:RDF>
  </metadata>
  <defs
     id="defs119" />
  <sodipodi:namedview
     pagecolor="#ffffff"
     bordercolor="#666666"
     borderopacity="1"
     objecttolerance="10"
     gridtolerance="10"
     guidetolerance="10"
     inkscape:pageopacity="0"
     inkscape:pageshadow="2"
     inkscape:window-width="1920"
     inkscape:window-height="1048"
     id="namedview117"
     showgrid="false"
     inkscape:zoom="3.8890873"
     inkscape:cx="99.312633"
     inkscape:cy="3.5891581"
     inkscape:window-x="0"
     inkscape:window-y="16"
     inkscape:window-maximized="1"
     inkscape:current-layer="svg115" />
  <title
     id="title95">30 -Javascript- (Outline)</title>
  <desc
     id="desc97">Created with Sketch.</desc>
  <g
     id="g109"
     style="fill:none;fill-rule:evenodd;stroke:none;stroke-width:1"
     transform="matrix(1.5871129,0,0,1.5871129,2.7713893,2.3725831)">
    <g
       transform="translate(-1200,-570)"
       id="g107"
       style="fill:#000000">
      <g
         transform="translate(1200,570)"
         id="g105">
        <path
           d="M 2,58 H 58 V 2 H 2 Z m 57,2 H 1 C 0.447,60 0,59.552 0,59 V 1 C 0,0.448 0.447,0 1,0 h 58 c 0.553,0 1,0.448 1,1 v 58 c 0,0.552 -0.447,1 -1,1 z"
           id="path99"
           inkscape:connector-curvature="0" />
        <path
           d="m 46,55 c -4.963,0 -9,-4.038 -9,-9 0,-0.552 0.447,-1 1,-1 0.553,0 1,0.448 1,1 0,3.86 3.141,7 7,7 3.859,0 7,-3.14 7,-7 0,-3.86 -3.141,-7 -7,-7 -4.963,0 -9,-4.038 -9,-9 0,-4.962 4.037,-9 9,-9 4.963,0 9,4.038 9,9 0,0.552 -0.447,1 -1,1 -0.553,0 -1,-0.448 -1,-1 0,-3.86 -3.141,-7 -7,-7 -3.859,0 -7,3.14 -7,7 0,3.86 3.141,7 7,7 4.963,0 9,4.038 9,9 0,4.962 -4.037,9 -9,9"
           id="path101"
           inkscape:connector-curvature="0" />
        <path
           d="m 25,55 c -4.963,0 -9,-4.038 -9,-9 0,-0.552 0.447,-1 1,-1 0.553,0 1,0.448 1,1 0,3.86 3.141,7 7,7 3.859,0 7,-3.14 7,-7 V 22 c 0,-0.552 0.447,-1 1,-1 0.553,0 1,0.448 1,1 v 24 c 0,4.962 -4.037,9 -9,9"
           id="path103"
           inkscape:connector-curvature="0" />
      </g>
    </g>
  </g>
</svg>
